# Blender 4.4.1
# www.blender.org
mtllib Science box.mtl
o Cube.017
v -0.409733 2.745642 2.757497
v -0.996271 2.745642 1.269961
v 0.543128 2.745642 2.381782
v -0.043410 2.745642 0.894246
v -0.409733 2.482622 2.757497
v -0.996271 2.482622 1.269961
v -0.043410 2.482622 0.894246
v 0.543128 2.482622 2.381782
v -0.990713 2.454628 1.273975
v -0.408410 2.454628 2.750769
v -0.990713 2.482521 1.273975
v -0.044733 2.454628 0.900974
v -0.044733 2.482521 0.900974
v 0.537570 2.454628 2.377767
v 0.537570 2.482521 2.377767
v -0.408410 2.482521 2.750769
vn -0.9303 -0.0000 0.3668
vn -0.3668 -0.0000 -0.9303
vn 0.9303 -0.0000 -0.3668
vn 0.3668 -0.0000 0.9303
vn -0.0000 1.0000 -0.0000
vn 0.0255 -0.9996 -0.0101
vn -0.0255 -0.9996 0.0101
vn 0.0064 -0.9998 0.0163
vn -0.0064 -0.9998 -0.0163
vn -0.0000 -1.0000 -0.0000
vt 0.228516 0.764287
vt 0.036434 0.765436
vt 0.035163 0.552836
vt 0.227244 0.551687
vt 0.247495 0.531192
vt 0.246346 0.339111
vt 0.458946 0.337839
vt 0.460095 0.529920
vt 0.480590 0.550172
vt 0.672671 0.549023
vt 0.673943 0.761622
vt 0.481862 0.762771
vt 0.461610 0.783266
vt 0.462759 0.975348
vt 0.250160 0.976619
vt 0.249011 0.784538
vt 0.967510 0.157990
vt 0.967510 0.419155
vt 0.507021 0.419155
vt 0.507021 0.157990
vt 0.481086 0.762008
vt 0.479823 0.550944
vt 0.228020 0.552450
vt 0.229283 0.763514
vt 0.249774 0.783762
vt 0.460838 0.782499
vt 0.460716 0.762130
vt 0.249652 0.763392
vt 0.459453 0.551066
vt 0.248390 0.552328
vt 0.248268 0.531959
vt 0.459332 0.530696
s 0
f 5/1/1 1/2/1 2/3/1 6/4/1
f 6/5/2 2/6/2 4/7/2 7/8/2
f 7/9/3 4/10/3 3/11/3 8/12/3
f 8/13/4 3/14/4 1/15/4 5/16/4
f 4/17/5 2/18/5 1/19/5 3/20/5
f 7/9/6 8/12/6 15/21/6 13/22/6
f 5/1/7 6/4/7 11/23/7 16/24/7
f 8/13/8 5/16/8 16/25/8 15/26/8
f 14/27/4 15/26/4 16/25/4 10/28/4
f 12/29/3 13/22/3 15/21/3 14/27/3
f 9/30/2 11/31/2 13/32/2 12/29/2
f 10/28/1 16/24/1 11/23/1 9/30/1
f 6/5/9 7/8/9 13/32/9 11/31/9
f 9/30/10 12/29/10 14/27/10 10/28/10
